<svg width="48" height="78" viewBox="0 0 48 78" fill="none" xmlns="http://www.w3.org/2000/svg">
<path d="M19.7 47.8551V48.2625V58.5V59H19.2H10.1V67.75H19.2H19.7V68.25V77.5H28.3V68.25V67.75H28.8H37.9V59H28.8H28.3V58.5V48.2625V47.8551L28.699 47.7728C39.4207 45.5616 47.5 35.9312 47.5 24.375C47.5 11.1812 36.9721 0.5 24 0.5H24H24H23.9999H23.9999H23.9999H23.9999H23.9999H23.9999H23.9998H23.9998H23.9998H23.9998H23.9998H23.9998H23.9997H23.9997H23.9997H23.9997H23.9997H23.9997H23.9996H23.9996H23.9996H23.9996H23.9996H23.9996H23.9995H23.9995H23.9995H23.9995H23.9994H23.9994H23.9994H23.9994H23.9994H23.9994H23.9993H23.9993H23.9993H23.9993H23.9993H23.9992H23.9992H23.9992H23.9992H23.9992H23.9992H23.9991H23.9991H23.9991H23.9991H23.9991H23.9991H23.999H23.999H23.999H23.999H23.999H23.999H23.9989H23.9989H23.9989H23.9989H23.9989H23.9989H23.9988H23.9988H23.9988H23.9988H23.9988H23.9988H23.9987H23.9987H23.9987H23.9987H23.9987H23.9986H23.9986H23.9986H23.9986H23.9986H23.9986H23.9985H23.9985H23.9985H23.9985H23.9985H23.9985H23.9984H23.9984H23.9984H23.9984H23.9984H23.9983H23.9983H23.9983H23.9983H23.9983H23.9983H23.9982H23.9982H23.9982H23.9982H23.9982H23.9981H23.9981H23.9981H23.9981H23.9981H23.9981H23.998H23.998H23.998H23.998H23.998H23.998H23.998H23.9979H23.9979H23.9979H23.9979H23.9979H23.9979H23.9978H23.9978H23.9978H23.9978H23.9978H23.9978H23.9977H23.9977H23.9977H23.9977H23.9977H23.9976H23.9976H23.9976H23.9976H23.9976H23.9975H23.9975H23.9975H23.9975H23.9975H23.9974H23.9974H23.9974H23.9974H23.9974H23.9974H23.9973H23.9973H23.9973H23.9973H23.9973H23.9973H23.9972H23.9972H23.9972H23.9972H23.9972H23.9972H23.9972H23.9971H23.9971H23.9971H23.9971H23.9971H23.997L19.7 47.8551ZM19.7 47.8551L19.301 47.7728M19.7 47.8551L19.301 47.7728M19.301 47.7728C8.5793 45.5616 0.5 35.9312 0.5 24.375C0.5 11.1827 11.0265 0.501522 23.997 0.5L19.301 47.7728ZM23.9969 39.5H23.997H23.997H23.9971H23.9971H23.9971H23.9972H23.9972H23.9972H23.9973H23.9973H23.9973H23.9974H23.9974H23.9974H23.9974H23.9975H23.9975H23.9975H23.9976H23.9976H23.9976H23.9977H23.9977H23.9977H23.9978H23.9978H23.9978H23.9978H23.9979H23.9979H23.9979H23.998H23.998H23.998H23.9981H23.9981H23.9981H23.9982H23.9982H23.9982H23.9982H23.9983H23.9983H23.9983H23.9984H23.9984H23.9984H23.9985H23.9985H23.9985H23.9985H23.9986H23.9986H23.9986H23.9987H23.9987H23.9987H23.9988H23.9988H23.9988H23.9988H23.9989H23.9989H23.9989H23.999H23.999H23.999H23.9991H23.9991H23.9991H23.9992H23.9992H23.9992H23.9992H23.9993H23.9993H23.9993H23.9994H23.9994H23.9994H23.9995H23.9995H23.9995H23.9996H23.9996H23.9996H23.9996H23.9997H23.9997H23.9997H23.9998H23.9998H23.9998H23.9999H23.9999H23.9999H24H24C32.2364 39.5 38.9 32.7211 38.9 24.375C38.9 16.0289 32.2364 9.25 24 9.25H23.997H23.9969C15.762 9.25158 9.1 16.0305 9.1 24.375C9.1 32.7195 15.762 39.4984 23.9969 39.5Z" stroke="white"/>
</svg>
